<svg width="18" height="10" viewBox="0 0 18 10" fill="none" xmlns="http://www.w3.org/2000/svg">
<path d="M2.68801 0.599999H3.64801V9H2.54401V1.8L0.756012 2.328L0.480012 1.368L2.68801 0.599999ZM10.7574 7.968C10.1894 8.76 9.39336 9.156 8.36936 9.156C7.34536 9.156 6.54936 8.76 5.98136 7.968C5.41336 7.176 5.12936 6.12 5.12936 4.8C5.12936 3.48 5.41336 2.424 5.98136 1.632C6.54936 0.839999 7.34536 0.443999 8.36936 0.443999C9.39336 0.443999 10.1894 0.839999 10.7574 1.632C11.3254 2.424 11.6094 3.48 11.6094 4.8C11.6094 6.12 11.3254 7.176 10.7574 7.968ZM6.79736 7.212C7.16536 7.78 7.68936 8.064 8.36936 8.064C9.04936 8.064 9.57336 7.78 9.94136 7.212C10.3174 6.644 10.5054 5.84 10.5054 4.8C10.5054 3.76 10.3174 2.956 9.94136 2.388C9.57336 1.812 9.04936 1.524 8.36936 1.524C7.68936 1.524 7.16536 1.808 6.79736 2.376C6.42936 2.944 6.24536 3.752 6.24536 4.8C6.24536 5.84 6.42936 6.644 6.79736 7.212ZM18.0039 4.296V5.292H15.9159V7.38H14.9199V5.292H12.8439V4.296H14.9199V2.22H15.9159V4.296H18.0039Z" fill="#1E1E1E"/>
</svg>
