<svg width="16" height="13" viewBox="0 0 16 13" fill="none" xmlns="http://www.w3.org/2000/svg">
<path fill-rule="evenodd" clip-rule="evenodd" d="M7.61386 0.5C6.23198 0.5 4.88949 0.960403 3.79557 1.80325C2.78697 2.58016 2.0421 3.6442 1.656 4.85079C1.245 4.90922 0.860882 5.09786 0.563904 5.39416C0.202839 5.75457 -0.000488281 6.24385 -0.000488281 6.75367C-0.000488281 7.26349 0.202839 7.7531 0.563904 8.11334C0.860715 8.40948 1.2445 8.59862 1.65516 8.65671C2.28132 10.6169 3.83848 12.1531 5.82599 12.7474C7.26847 13.1759 8.81828 13.0723 10.1903 12.4548C11.5623 11.8373 12.6661 10.7474 13.2991 9.38438C13.4093 9.1475 13.5036 8.90394 13.5829 8.65571C13.9902 8.59561 14.3708 8.40731 14.6655 8.11334C15.0265 7.7531 15.2297 7.26365 15.2297 6.75384C15.2297 6.24402 15.0265 5.75457 14.6655 5.39433C14.3708 5.10019 13.9902 4.91156 13.5829 4.85196C13.146 3.48561 12.2503 2.30689 11.0422 1.5188C10.9936 1.48709 10.9392 1.46527 10.8822 1.45457C10.8252 1.44388 10.7667 1.44451 10.7099 1.45645C10.6531 1.46839 10.5993 1.49139 10.5514 1.52414C10.5035 1.55689 10.4626 1.59875 10.4309 1.64734C10.3992 1.69591 10.3773 1.75026 10.3666 1.80727C10.3559 1.86429 10.3566 1.92285 10.3685 1.97962C10.3804 2.03638 10.4034 2.09024 10.4362 2.13812C10.469 2.186 10.5108 2.22695 10.5594 2.25865C11.6753 2.98664 12.4803 4.10143 12.8193 5.38749C12.8451 5.48544 12.9038 5.57154 12.9855 5.63138C13.0673 5.69123 13.1671 5.72116 13.2682 5.71618C13.2849 5.71551 13.2933 5.71518 13.3066 5.71501C13.5827 5.71551 13.8468 5.82519 14.0418 6.01966C14.2373 6.21464 14.3468 6.4784 14.3468 6.75384C14.3468 7.02928 14.2366 7.29303 14.0418 7.48801C13.8468 7.68266 13.5827 7.79217 13.3068 7.79267C13.2901 7.7925 13.2817 7.79217 13.2684 7.7915C13.1672 7.78648 13.0673 7.81643 12.9856 7.8763C12.9038 7.93618 12.8451 8.02235 12.8193 8.12036C12.7392 8.42651 12.6312 8.72516 12.498 9.01245C11.9543 10.1828 11.0066 11.1188 9.82772 11.6493C8.64884 12.1799 7.31821 12.2692 6.07873 11.9011C4.28052 11.3634 2.89431 9.93142 2.41787 8.12036C2.39213 8.02246 2.33354 7.93638 2.25192 7.87652C2.1703 7.81665 2.07059 7.78664 1.96948 7.7915C1.95279 7.79233 1.93944 7.79267 1.92441 7.79267C1.64798 7.7925 1.38339 7.68249 1.18808 7.48801C0.992761 7.29303 0.883251 7.02928 0.883251 6.75384C0.883251 6.4784 0.993429 6.21464 1.18808 6.01966C1.38356 5.82452 1.64865 5.71501 1.92541 5.71501C1.93098 5.71506 1.93654 5.715 1.94211 5.71484C1.9588 5.71451 1.97382 5.71451 1.98885 5.71484C2.08804 5.71708 2.1851 5.68585 2.26439 5.62619C2.34367 5.56653 2.40056 5.48192 2.42589 5.38598C2.72804 4.24065 3.40127 3.2272 4.34112 2.5032C5.27978 1.78005 6.43128 1.38658 7.61719 1.38358C8.18125 1.40194 8.64617 1.8136 8.72997 2.36999C8.81344 2.92872 8.48808 3.4609 7.95005 3.64086C7.41203 3.82081 6.82909 3.59245 6.55849 3.09532C6.50246 2.99245 6.40786 2.91606 6.29551 2.88294C6.18315 2.84981 6.06224 2.86268 5.95937 2.9187C5.90843 2.94646 5.86346 2.98398 5.82702 3.02912C5.79058 3.07426 5.76339 3.12614 5.747 3.1818C5.73062 3.23745 5.72536 3.29578 5.73152 3.35347C5.73768 3.41115 5.75515 3.46706 5.78292 3.51799C6.25602 4.38638 7.292 4.79253 8.23016 4.47853C9.16851 4.1647 9.75043 3.21634 9.60336 2.23861C9.45646 1.26088 8.62163 0.525373 7.63239 0.500167L7.61386 0.5ZM5.65155 6.04888C5.33721 6.04888 5.08029 6.31046 5.08029 6.63064C5.08029 6.95082 5.33721 7.21274 5.65155 7.21274C5.96589 7.21274 6.22263 6.95082 6.22263 6.63064C6.22263 6.31046 5.96589 6.04888 5.65155 6.04888ZM9.57799 6.04888C9.26366 6.04888 9.00658 6.31046 9.00658 6.63064C9.00658 6.95082 9.26366 7.21274 9.57799 7.21274C9.89216 7.21274 10.1491 6.95082 10.1491 6.63064C10.1491 6.31046 9.89216 6.04888 9.57799 6.04888ZM5.68844 8.70045C5.57722 8.70635 5.47234 8.75405 5.3948 8.834C5.35486 8.8761 5.3236 8.92566 5.30282 8.97984C5.28204 9.03403 5.27215 9.09178 5.2737 9.14979C5.27525 9.2078 5.28821 9.26494 5.31186 9.31794C5.3355 9.37094 5.36936 9.41876 5.41149 9.45867C5.9941 10.0221 6.7907 10.3337 7.62103 10.3337C8.45119 10.3337 9.24797 10.0221 9.83039 9.45867C9.87253 9.41876 9.90638 9.37094 9.93003 9.31794C9.95367 9.26494 9.96664 9.2078 9.96819 9.14979C9.96974 9.09178 9.95984 9.03403 9.93906 8.97984C9.91828 8.92566 9.88703 8.8761 9.84708 8.834C9.80718 8.79187 9.75936 8.75801 9.70636 8.73437C9.65336 8.71073 9.59623 8.69776 9.53822 8.69621C9.48021 8.69466 9.42246 8.70455 9.36827 8.72533C9.31409 8.74611 9.26453 8.77736 9.22243 8.8173C8.8136 9.21294 8.23501 9.44414 7.62721 9.44414C7.01923 9.44414 6.4408 9.21294 6.03183 8.8173C5.95986 8.74786 5.86646 8.7049 5.7669 8.69544C5.74526 8.69339 5.7235 8.69295 5.70179 8.69411L5.68844 8.70045Z" fill="#3805F2"/>
</svg>
