<svg width="15" height="14" viewBox="0 0 15 14" fill="none" xmlns="http://www.w3.org/2000/svg">
<path d="M14.3844 13.3837C12.7753 12.3931 11.0421 11.8518 9.09193 11.731V10.8705C9.50941 10.6833 9.88237 10.417 10.1874 10.088H11.5011C12.2568 10.088 12.8719 9.49382 12.8719 8.76377V5.54138C12.8719 2.76154 10.5481 0.5 7.69193 0.5C4.83565 0.5 2.51193 2.76154 2.51193 5.54138V8.76377C2.51193 9.49382 3.12695 10.088 3.88295 10.088H5.19839C5.50331 10.4163 5.87529 10.6826 6.29193 10.8699V11.731C4.34187 11.8518 2.60867 12.3931 0.999512 13.3837L1.22421 13.7283C2.70541 12.8167 4.23491 12.3145 5.99891 12.1628C6.47519 12.403 7.08419 12.536 7.72679 12.536C8.36183 12.536 8.97223 12.4053 9.44711 12.1684C11.1848 12.3264 12.6958 12.8274 14.1594 13.7283L14.3844 13.3837ZM3.88295 9.68C3.35851 9.68 2.93193 9.26901 2.93193 8.76377V5.54138C2.93193 2.98635 5.06721 0.907864 7.69193 0.907864C10.3165 0.907864 12.4519 2.98635 12.4519 5.54125V8.76377C12.4519 9.26901 12.0254 9.68 11.5011 9.68H10.5097C10.7949 9.25378 10.9824 8.75955 11.0358 8.22589C11.2468 8.0767 11.4141 7.82782 11.4941 7.538C11.5653 7.27974 11.561 7.01522 11.4813 6.79367C11.4007 6.569 11.2458 6.4043 11.0519 6.3344V5.40212C11.1046 5.39722 11.1574 5.39314 11.209 5.38458C11.3233 5.36608 11.4007 5.26109 11.3815 5.14984C11.3623 5.03859 11.254 4.96325 11.1397 4.98215C9.96469 5.17282 8.29351 4.22681 8.10829 3.26746C8.09051 3.17512 8.01029 3.10658 7.91369 3.10127C7.81737 3.09692 7.72945 3.1554 7.70103 3.24516C7.27711 4.58626 5.26811 5.2309 3.97675 5.26C3.86083 5.26272 3.76899 5.35615 3.77179 5.46876C3.77445 5.57974 3.86797 5.668 3.98165 5.668H3.98669C4.09687 5.66528 4.21321 5.65712 4.33179 5.64597V6.32434C4.12347 6.38758 3.95673 6.5573 3.87189 6.79367C3.79237 7.01522 3.78789 7.27946 3.85915 7.538C3.94413 7.84604 4.12347 8.10267 4.35013 8.24806C4.40655 8.77315 4.59275 9.25976 4.87443 9.68H3.88295ZM4.75935 8.1092L4.75067 7.98925L4.63839 7.93852C4.47613 7.86522 4.32955 7.66652 4.26501 7.43246C4.21601 7.25471 4.21741 7.07098 4.26865 6.9279C4.29315 6.85977 4.35111 6.74118 4.46451 6.71153C4.48061 6.70745 4.49727 6.70514 4.52443 6.70514C4.52443 6.70514 4.52821 6.70514 4.53031 6.70514L4.75193 6.71738V5.59252C5.91981 5.39695 7.28425 4.82426 7.88639 3.83758C8.36043 4.65942 9.54385 5.33711 10.6319 5.40688V6.70214L10.839 6.705C10.8559 6.70527 10.8726 6.70745 10.8886 6.71166C11.0024 6.74131 11.0603 6.8599 11.0847 6.92818C11.1359 7.07111 11.1373 7.25485 11.0883 7.4326C11.0263 7.65727 10.8912 7.84726 10.7354 7.92873L10.6331 7.98218L10.6255 8.09506C10.5248 9.59187 9.23613 10.7643 7.69193 10.7643C6.15529 10.7643 4.86729 9.59813 4.75935 8.1092ZM6.71193 11.9961V11.0275C7.02301 11.1205 7.35173 11.1722 7.69193 11.1722C8.03227 11.1722 8.36085 11.1206 8.67193 11.028V12.015C8.37863 12.088 8.05789 12.1279 7.72693 12.1279C7.37301 12.128 7.02469 12.0809 6.71193 11.9961Z" fill="#3805F2" stroke="#3805F2" stroke-width="0.4"/>
</svg>
