<svg width="71" height="70" viewBox="0 0 71 70" fill="none" xmlns="http://www.w3.org/2000/svg">
<path d="M70.6973 35.0133C61.4164 35.0133 52.5157 38.6994 45.9532 45.2606C39.3907 51.8219 35.7039 60.7209 35.7039 70C35.7004 60.7197 32.0106 51.8207 25.446 45.2598C18.8814 38.6989 9.9793 35.0133 0.697266 35.0133C9.98282 35.0097 18.8869 31.3193 25.4515 24.7534C32.0161 18.1875 35.7039 9.2838 35.7039 0C35.7022 4.59627 36.6059 9.14787 38.3635 13.3949C40.1212 17.642 42.6983 21.5013 45.9477 24.7526C49.1972 28.0039 53.0553 30.5834 57.3018 32.344C61.5484 34.1045 66.1001 35.0115 70.6973 35.0133Z" fill="#3805F2"/>
</svg>
