<svg width="72" height="176" viewBox="0 0 72 176" fill="none" xmlns="http://www.w3.org/2000/svg">
<rect x="0.5" y="0.5" width="71" height="175" rx="4.5" stroke="#9747FF" stroke-dasharray="10 5"/>
<circle cx="36" cy="36" r="16" fill="#324EEA"/>
<path d="M39.417 36.9316L39.8847 34.058H36.959V32.1933C36.959 31.4068 37.3673 30.6409 38.6735 30.6409H40V28.1944C39.221 28.0753 38.4338 28.0103 37.6448 28C35.2428 28 33.6716 29.3757 33.6716 31.8678V34.058H31V36.9316H33.6716V43.8792C34.7608 44.0403 35.8698 44.0403 36.959 43.8792V36.9316H39.417Z" fill="white"/>
<g filter="url(#filter0_d_433_1081)">
<circle cx="36" cy="88" r="15.5" stroke="white" shape-rendering="crispEdges"/>
</g>
<path d="M39.417 88.9316L39.8847 86.058H36.959V84.1933C36.959 83.4068 37.3673 82.6409 38.6735 82.6409H40V80.1944C39.221 80.0753 38.4338 80.0103 37.6448 80C35.2428 80 33.6716 81.3757 33.6716 83.8678V86.058H31V88.9316H33.6716V95.8792C34.7608 96.0403 35.8698 96.0403 36.959 95.8792V88.9316H39.417Z" fill="white"/>
<g filter="url(#filter1_d_433_1081)">
<circle cx="36" cy="140" r="16" fill="white"/>
<circle cx="36" cy="140" r="15.5" stroke="white"/>
</g>
<path d="M39.417 140.932L39.8847 138.058H36.959V136.193C36.959 135.407 37.3673 134.641 38.6735 134.641H40V132.194C39.221 132.075 38.4338 132.01 37.6448 132C35.2428 132 33.6716 133.376 33.6716 135.868V138.058H31V140.932H33.6716V147.879C34.7608 148.04 35.8698 148.04 36.959 147.879V140.932H39.417Z" fill="#3805F2"/>
<defs>
<filter id="filter0_d_433_1081" x="8.7" y="64.7" width="54.6" height="54.6" filterUnits="userSpaceOnUse" color-interpolation-filters="sRGB">
<feFlood flood-opacity="0" result="BackgroundImageFix"/>
<feColorMatrix in="SourceAlpha" type="matrix" values="0 0 0 0 0 0 0 0 0 0 0 0 0 0 0 0 0 0 127 0" result="hardAlpha"/>
<feOffset dy="4"/>
<feGaussianBlur stdDeviation="5.65"/>
<feComposite in2="hardAlpha" operator="out"/>
<feColorMatrix type="matrix" values="0 0 0 0 1 0 0 0 0 1 0 0 0 0 1 0 0 0 0.6 0"/>
<feBlend mode="normal" in2="BackgroundImageFix" result="effect1_dropShadow_433_1081"/>
<feBlend mode="normal" in="SourceGraphic" in2="effect1_dropShadow_433_1081" result="shape"/>
</filter>
<filter id="filter1_d_433_1081" x="8.7" y="116.7" width="54.6" height="54.6" filterUnits="userSpaceOnUse" color-interpolation-filters="sRGB">
<feFlood flood-opacity="0" result="BackgroundImageFix"/>
<feColorMatrix in="SourceAlpha" type="matrix" values="0 0 0 0 0 0 0 0 0 0 0 0 0 0 0 0 0 0 127 0" result="hardAlpha"/>
<feOffset dy="4"/>
<feGaussianBlur stdDeviation="5.65"/>
<feComposite in2="hardAlpha" operator="out"/>
<feColorMatrix type="matrix" values="0 0 0 0 1 0 0 0 0 1 0 0 0 0 1 0 0 0 0.6 0"/>
<feBlend mode="normal" in2="BackgroundImageFix" result="effect1_dropShadow_433_1081"/>
<feBlend mode="normal" in="SourceGraphic" in2="effect1_dropShadow_433_1081" result="shape"/>
</filter>
</defs>
</svg>
