<svg width="72" height="176" viewBox="0 0 72 176" fill="none" xmlns="http://www.w3.org/2000/svg">
<rect x="0.5" y="0.5" width="71" height="175" rx="4.5" stroke="#9747FF" stroke-dasharray="10 5"/>
<circle cx="36" cy="36" r="16" fill="#324EEA"/>
<path d="M36.5009 30.3494C38.5026 30.3494 38.739 30.3582 39.5309 30.3935C40.006 30.3994 40.4766 30.4865 40.9224 30.651C41.2455 30.7761 41.5388 30.9673 41.7836 31.2124C42.0284 31.4576 42.2193 31.7512 42.3439 32.0744C42.5101 32.5199 42.5979 32.9907 42.6032 33.4661C42.6384 34.2564 42.6455 34.4945 42.6455 36.4965C42.6455 38.4985 42.6455 38.7348 42.6032 39.525C42.5979 40.0004 42.5101 40.4713 42.3439 40.9167C42.2193 41.24 42.0284 41.5336 41.7836 41.7788C41.5388 42.0239 41.2455 42.2151 40.9224 42.3402C40.4766 42.5047 40.006 42.5918 39.5309 42.5977C38.7407 42.6348 38.5026 42.6418 36.5009 42.6418C34.4991 42.6418 34.2628 42.6418 33.4727 42.5977C32.9975 42.592 32.5269 42.5049 32.0811 42.3402C31.7576 42.2155 31.4638 42.0244 31.2187 41.7793C30.9736 41.5341 30.7825 41.2403 30.6578 40.9167C30.4933 40.4709 30.4063 40.0002 30.4004 39.525C30.3633 38.7348 30.3563 38.4967 30.3563 36.4965C30.3563 34.4962 30.3563 34.2564 30.4004 33.4661C30.4063 32.9909 30.4933 32.5203 30.6578 32.0744C30.7781 31.7487 30.9697 31.4539 31.2187 31.2119C31.4614 30.9637 31.7559 30.7721 32.0811 30.651C32.5269 30.4863 32.9975 30.3992 33.4727 30.3935C34.2628 30.3582 34.4991 30.3494 36.5009 30.3494ZM36.5009 29C34.4656 29 34.2081 29.0088 33.4109 29.0441C32.7887 29.0585 32.1734 29.1777 31.5908 29.3969C31.0932 29.5899 30.6412 29.8846 30.2637 30.2621C29.8863 30.6396 29.5916 31.0916 29.3986 31.5894C29.1785 32.1711 29.0592 32.7861 29.0459 33.4079C29.0088 34.2087 29 34.4663 29 36.5C29 38.5337 29.0088 38.793 29.0459 39.5903C29.0594 40.2127 29.1787 40.8282 29.3986 41.4106C29.592 41.9079 29.8868 42.3595 30.2642 42.7367C30.6417 43.1138 31.0934 43.4083 31.5908 43.6014C32.1731 43.8214 32.7886 43.9407 33.4109 43.9541C34.2099 43.9912 34.4691 44 36.5009 44C38.5326 44 38.7937 44 39.5926 43.9541C40.2144 43.9408 40.8293 43.8215 41.4109 43.6014C41.9088 43.4091 42.3609 43.1149 42.7385 42.7376C43.116 42.3604 43.4105 41.9084 43.6032 41.4106C43.8223 40.828 43.9415 40.2126 43.9559 39.5903C43.9912 38.7913 44 38.532 44 36.5C44 34.468 43.9912 34.207 43.9559 33.4079C43.9417 32.7862 43.8225 32.1713 43.6032 31.5894C43.4109 31.0912 43.1165 30.6388 42.739 30.2612C42.3614 29.8836 41.9091 29.5892 41.4109 29.3969C40.8291 29.1775 40.2143 29.0583 39.5926 29.0441C38.7919 29.0088 38.5344 29 36.5009 29Z" fill="white"/>
<path d="M36.5005 32.646C35.739 32.646 34.9946 32.8718 34.3615 33.2949C33.7283 33.718 33.2349 34.3194 32.9435 35.023C32.6521 35.7266 32.5758 36.5008 32.7244 37.2477C32.8729 37.9947 33.2396 38.6808 33.7781 39.2193C34.3165 39.7578 35.0025 40.1245 35.7494 40.2731C36.4962 40.4217 37.2703 40.3454 37.9738 40.054C38.6774 39.7625 39.2787 39.269 39.7017 38.6358C40.1248 38.0026 40.3506 37.2581 40.3506 36.4965C40.3508 35.9908 40.2514 35.49 40.058 35.0227C39.8646 34.5555 39.581 34.1309 39.2234 33.7733C38.8659 33.4157 38.4413 33.1321 37.9741 32.9386C37.5069 32.7452 37.0061 32.6458 36.5005 32.646ZM36.5005 38.9959C36.0061 38.9959 35.5229 38.8493 35.1119 38.5746C34.7008 38.2999 34.3805 37.9094 34.1914 37.4526C34.0023 36.9958 33.9529 36.4932 34.0495 36.0083C34.1461 35.5234 34.3843 35.078 34.734 34.7286C35.0836 34.3791 35.5291 34.1412 36.014 34.0449C36.4989 33.9487 37.0015 33.9984 37.4581 34.1879C37.9147 34.3773 38.3049 34.698 38.5793 35.1092C38.8537 35.5205 38.9999 36.0039 38.9996 36.4983C38.9994 36.8263 38.9345 37.151 38.8088 37.454C38.6831 37.7569 38.499 38.0321 38.2669 38.2639C38.0348 38.4957 37.7594 38.6794 37.4563 38.8047C37.1532 38.93 36.8284 38.9944 36.5005 38.9942V38.9959Z" fill="white"/>
<path d="M40.503 33.3939C40.9997 33.3939 41.4025 32.9911 41.4025 32.4943C41.4025 31.9975 40.9997 31.5947 40.503 31.5947C40.0062 31.5947 39.6035 31.9975 39.6035 32.4943C39.6035 32.9911 40.0062 33.3939 40.503 33.3939Z" fill="white"/>
<g filter="url(#filter0_d_433_1085)">
<circle cx="36" cy="88" r="15.5" stroke="white" shape-rendering="crispEdges"/>
</g>
<path d="M36.5009 82.3494C38.5026 82.3494 38.739 82.3582 39.5309 82.3935C40.006 82.3994 40.4766 82.4865 40.9224 82.651C41.2455 82.7761 41.5388 82.9673 41.7836 83.2124C42.0284 83.4576 42.2193 83.7512 42.3439 84.0744C42.5101 84.5199 42.5979 84.9907 42.6032 85.4661C42.6384 86.2564 42.6455 86.4945 42.6455 88.4965C42.6455 90.4985 42.6455 90.7348 42.6032 91.525C42.5979 92.0004 42.5101 92.4713 42.3439 92.9167C42.2193 93.24 42.0284 93.5336 41.7836 93.7788C41.5388 94.0239 41.2455 94.2151 40.9224 94.3402C40.4766 94.5047 40.006 94.5918 39.5309 94.5977C38.7407 94.6348 38.5026 94.6418 36.5009 94.6418C34.4991 94.6418 34.2628 94.6418 33.4727 94.5977C32.9975 94.592 32.5269 94.5049 32.0811 94.3402C31.7576 94.2155 31.4638 94.0244 31.2187 93.7793C30.9736 93.5341 30.7825 93.2403 30.6578 92.9167C30.4933 92.4709 30.4063 92.0002 30.4004 91.525C30.3633 90.7348 30.3563 90.4967 30.3563 88.4965C30.3563 86.4962 30.3563 86.2564 30.4004 85.4661C30.4063 84.9909 30.4933 84.5203 30.6578 84.0744C30.7781 83.7487 30.9697 83.4539 31.2187 83.2119C31.4614 82.9637 31.7559 82.7721 32.0811 82.651C32.5269 82.4863 32.9975 82.3992 33.4727 82.3935C34.2628 82.3582 34.4991 82.3494 36.5009 82.3494ZM36.5009 81C34.4656 81 34.2081 81.0088 33.4109 81.0441C32.7887 81.0585 32.1734 81.1777 31.5908 81.3969C31.0932 81.5899 30.6412 81.8846 30.2637 82.2621C29.8863 82.6396 29.5916 83.0916 29.3986 83.5894C29.1785 84.1711 29.0592 84.7861 29.0459 85.4079C29.0088 86.2087 29 86.4663 29 88.5C29 90.5337 29.0088 90.793 29.0459 91.5903C29.0594 92.2127 29.1787 92.8282 29.3986 93.4106C29.592 93.9079 29.8868 94.3595 30.2642 94.7367C30.6417 95.1138 31.0934 95.4083 31.5908 95.6014C32.1731 95.8214 32.7886 95.9407 33.4109 95.9541C34.2099 95.9912 34.4691 96 36.5009 96C38.5326 96 38.7937 96 39.5926 95.9541C40.2144 95.9408 40.8293 95.8215 41.4109 95.6014C41.9088 95.4091 42.3609 95.1149 42.7385 94.7376C43.116 94.3604 43.4105 93.9084 43.6032 93.4106C43.8223 92.828 43.9415 92.2126 43.9559 91.5903C43.9912 90.7913 44 90.532 44 88.5C44 86.468 43.9912 86.207 43.9559 85.4079C43.9417 84.7862 43.8225 84.1713 43.6032 83.5894C43.4109 83.0912 43.1165 82.6388 42.739 82.2612C42.3614 81.8836 41.9091 81.5892 41.4109 81.3969C40.8291 81.1775 40.2143 81.0583 39.5926 81.0441C38.7919 81.0088 38.5344 81 36.5009 81Z" fill="white"/>
<path d="M36.5005 84.646C35.739 84.646 34.9946 84.8718 34.3615 85.2949C33.7283 85.718 33.2349 86.3194 32.9435 87.023C32.6521 87.7266 32.5758 88.5008 32.7244 89.2477C32.8729 89.9947 33.2396 90.6808 33.7781 91.2193C34.3165 91.7578 35.0025 92.1245 35.7494 92.2731C36.4962 92.4217 37.2703 92.3454 37.9738 92.054C38.6774 91.7625 39.2787 91.269 39.7017 90.6358C40.1248 90.0026 40.3506 89.2581 40.3506 88.4965C40.3508 87.9908 40.2514 87.49 40.058 87.0227C39.8646 86.5555 39.581 86.1309 39.2234 85.7733C38.8659 85.4157 38.4413 85.1321 37.9741 84.9386C37.5069 84.7452 37.0061 84.6458 36.5005 84.646ZM36.5005 90.9959C36.0061 90.9959 35.5229 90.8493 35.1119 90.5746C34.7008 90.2999 34.3805 89.9094 34.1914 89.4526C34.0023 88.9958 33.9529 88.4932 34.0495 88.0083C34.1461 87.5234 34.3843 87.078 34.734 86.7286C35.0836 86.3791 35.5291 86.1412 36.014 86.0449C36.4989 85.9487 37.0015 85.9984 37.4581 86.1879C37.9147 86.3773 38.3049 86.698 38.5793 87.1092C38.8537 87.5205 38.9999 88.0039 38.9996 88.4983C38.9994 88.8263 38.9345 89.151 38.8088 89.454C38.6831 89.7569 38.499 90.0321 38.2669 90.2639C38.0348 90.4957 37.7594 90.6794 37.4563 90.8047C37.1532 90.93 36.8284 90.9944 36.5005 90.9942V90.9959Z" fill="white"/>
<path d="M40.503 85.3939C40.9997 85.3939 41.4025 84.9911 41.4025 84.4943C41.4025 83.9975 40.9997 83.5947 40.503 83.5947C40.0062 83.5947 39.6035 83.9975 39.6035 84.4943C39.6035 84.9911 40.0062 85.3939 40.503 85.3939Z" fill="white"/>
<g filter="url(#filter1_d_433_1085)">
<circle cx="36" cy="140" r="16" fill="white"/>
<circle cx="36" cy="140" r="15.5" stroke="white"/>
</g>
<path d="M36.5009 134.349C38.5026 134.349 38.739 134.358 39.5309 134.393C40.006 134.399 40.4766 134.486 40.9224 134.651C41.2455 134.776 41.5388 134.967 41.7836 135.212C42.0284 135.458 42.2193 135.751 42.3439 136.074C42.5101 136.52 42.5979 136.991 42.6032 137.466C42.6384 138.256 42.6455 138.494 42.6455 140.496C42.6455 142.498 42.6455 142.735 42.6032 143.525C42.5979 144 42.5101 144.471 42.3439 144.917C42.2193 145.24 42.0284 145.534 41.7836 145.779C41.5388 146.024 41.2455 146.215 40.9224 146.34C40.4766 146.505 40.006 146.592 39.5309 146.598C38.7407 146.635 38.5026 146.642 36.5009 146.642C34.4991 146.642 34.2628 146.642 33.4727 146.598C32.9975 146.592 32.5269 146.505 32.0811 146.34C31.7576 146.216 31.4638 146.024 31.2187 145.779C30.9736 145.534 30.7825 145.24 30.6578 144.917C30.4933 144.471 30.4063 144 30.4004 143.525C30.3633 142.735 30.3563 142.497 30.3563 140.496C30.3563 138.496 30.3563 138.256 30.4004 137.466C30.4063 136.991 30.4933 136.52 30.6578 136.074C30.7781 135.749 30.9697 135.454 31.2187 135.212C31.4614 134.964 31.7559 134.772 32.0811 134.651C32.5269 134.486 32.9975 134.399 33.4727 134.393C34.2628 134.358 34.4991 134.349 36.5009 134.349ZM36.5009 133C34.4656 133 34.2081 133.009 33.4109 133.044C32.7887 133.058 32.1734 133.178 31.5908 133.397C31.0932 133.59 30.6412 133.885 30.2637 134.262C29.8863 134.64 29.5916 135.092 29.3986 135.589C29.1785 136.171 29.0592 136.786 29.0459 137.408C29.0088 138.209 29 138.466 29 140.5C29 142.534 29.0088 142.793 29.0459 143.59C29.0594 144.213 29.1787 144.828 29.3986 145.411C29.592 145.908 29.8868 146.36 30.2642 146.737C30.6417 147.114 31.0934 147.408 31.5908 147.601C32.1731 147.821 32.7886 147.941 33.4109 147.954C34.2099 147.991 34.4691 148 36.5009 148C38.5326 148 38.7937 148 39.5926 147.954C40.2144 147.941 40.8293 147.822 41.4109 147.601C41.9088 147.409 42.3609 147.115 42.7385 146.738C43.116 146.36 43.4105 145.908 43.6032 145.411C43.8223 144.828 43.9415 144.213 43.9559 143.59C43.9912 142.791 44 142.532 44 140.5C44 138.468 43.9912 138.207 43.9559 137.408C43.9417 136.786 43.8225 136.171 43.6032 135.589C43.4109 135.091 43.1165 134.639 42.739 134.261C42.3614 133.884 41.9091 133.589 41.4109 133.397C40.8291 133.178 40.2143 133.058 39.5926 133.044C38.7919 133.009 38.5344 133 36.5009 133Z" fill="#3805F2"/>
<path d="M36.5005 136.646C35.739 136.646 34.9946 136.872 34.3615 137.295C33.7283 137.718 33.2349 138.319 32.9435 139.023C32.6521 139.727 32.5758 140.501 32.7244 141.248C32.8729 141.995 33.2396 142.681 33.7781 143.219C34.3165 143.758 35.0025 144.125 35.7494 144.273C36.4962 144.422 37.2703 144.345 37.9738 144.054C38.6774 143.763 39.2787 143.269 39.7017 142.636C40.1248 142.003 40.3506 141.258 40.3506 140.497C40.3508 139.991 40.2514 139.49 40.058 139.023C39.8646 138.555 39.581 138.131 39.2234 137.773C38.8659 137.416 38.4413 137.132 37.9741 136.939C37.5069 136.745 37.0061 136.646 36.5005 136.646ZM36.5005 142.996C36.0061 142.996 35.5229 142.849 35.1119 142.575C34.7008 142.3 34.3805 141.909 34.1914 141.453C34.0023 140.996 33.9529 140.493 34.0495 140.008C34.1461 139.523 34.3843 139.078 34.734 138.729C35.0836 138.379 35.5291 138.141 36.014 138.045C36.4989 137.949 37.0015 137.998 37.4581 138.188C37.9147 138.377 38.3049 138.698 38.5793 139.109C38.8537 139.52 38.9999 140.004 38.9996 140.498C38.9994 140.826 38.9345 141.151 38.8088 141.454C38.6831 141.757 38.499 142.032 38.2669 142.264C38.0348 142.496 37.7594 142.679 37.4563 142.805C37.1532 142.93 36.8284 142.994 36.5005 142.994V142.996Z" fill="#3805F2"/>
<path d="M40.503 137.394C40.9997 137.394 41.4025 136.991 41.4025 136.494C41.4025 135.997 40.9997 135.595 40.503 135.595C40.0062 135.595 39.6035 135.997 39.6035 136.494C39.6035 136.991 40.0062 137.394 40.503 137.394Z" fill="#3805F2"/>
<defs>
<filter id="filter0_d_433_1085" x="9.1" y="65.1" width="53.8" height="53.8" filterUnits="userSpaceOnUse" color-interpolation-filters="sRGB">
<feFlood flood-opacity="0" result="BackgroundImageFix"/>
<feColorMatrix in="SourceAlpha" type="matrix" values="0 0 0 0 0 0 0 0 0 0 0 0 0 0 0 0 0 0 127 0" result="hardAlpha"/>
<feOffset dy="4"/>
<feGaussianBlur stdDeviation="5.45"/>
<feComposite in2="hardAlpha" operator="out"/>
<feColorMatrix type="matrix" values="0 0 0 0 1 0 0 0 0 1 0 0 0 0 1 0 0 0 0.5 0"/>
<feBlend mode="normal" in2="BackgroundImageFix" result="effect1_dropShadow_433_1085"/>
<feBlend mode="normal" in="SourceGraphic" in2="effect1_dropShadow_433_1085" result="shape"/>
</filter>
<filter id="filter1_d_433_1085" x="9.1" y="117.1" width="53.8" height="53.8" filterUnits="userSpaceOnUse" color-interpolation-filters="sRGB">
<feFlood flood-opacity="0" result="BackgroundImageFix"/>
<feColorMatrix in="SourceAlpha" type="matrix" values="0 0 0 0 0 0 0 0 0 0 0 0 0 0 0 0 0 0 127 0" result="hardAlpha"/>
<feOffset dy="4"/>
<feGaussianBlur stdDeviation="5.45"/>
<feComposite in2="hardAlpha" operator="out"/>
<feColorMatrix type="matrix" values="0 0 0 0 1 0 0 0 0 1 0 0 0 0 1 0 0 0 0.5 0"/>
<feBlend mode="normal" in2="BackgroundImageFix" result="effect1_dropShadow_433_1085"/>
<feBlend mode="normal" in="SourceGraphic" in2="effect1_dropShadow_433_1085" result="shape"/>
</filter>
</defs>
</svg>
