<svg width="19" height="26" viewBox="0 0 19 26" fill="none" xmlns="http://www.w3.org/2000/svg">
<path d="M16.0298 3.12544C14.2981 1.44486 11.9496 0.500732 9.5008 0.500732C7.05201 0.500732 4.70349 1.44486 2.9718 3.12544C-0.636253 6.62604 -1.10986 11.5689 2.38652 16.5849C4.16145 19.1318 9.50002 25.4999 9.50002 25.4999C9.50002 25.4999 14.8383 19.1318 16.6135 16.5849C20.1099 11.5689 19.6363 6.62604 16.0298 3.12544ZM9.50002 15.115C8.4009 15.115 7.32647 14.7987 6.41259 14.206C5.49871 13.6133 4.78642 12.7708 4.36581 11.7852C3.9452 10.7996 3.83514 9.715 4.04957 8.66865C4.264 7.62231 4.79327 6.66118 5.57047 5.90681C6.34766 5.15243 7.33786 4.6387 8.41586 4.43057C9.49385 4.22244 10.6112 4.32926 11.6267 4.73752C12.6421 5.14578 13.5101 5.83715 14.1207 6.7242C14.7313 7.61125 15.0572 8.65414 15.0572 9.72098C15.0572 11.1516 14.4718 12.5236 13.4296 13.5352C12.3874 14.5467 10.9739 15.115 9.50002 15.115Z" fill="#3805F2"/>
</svg>
