<svg width="11" height="11" viewBox="0 0 11 11" fill="none" xmlns="http://www.w3.org/2000/svg">
<path fill-rule="evenodd" clip-rule="evenodd" d="M9.4473 7.30925C9.234 7.14041 8.98533 7.02189 8.71984 6.96253C8.45435 6.90318 8.17889 6.90451 7.91399 6.96644C7.51508 7.12849 7.29069 7.75179 7.00397 8.06967C6.94896 8.14436 6.86853 8.19637 6.77783 8.21588C6.68714 8.2354 6.59244 8.22108 6.51157 8.17563C5.0539 7.60471 3.83094 6.5596 3.0398 5.20873C2.97434 5.12169 2.94379 5.01332 2.95417 4.9049C2.96455 4.79649 3.01511 4.69587 3.0959 4.62283C3.38911 4.34217 3.60396 3.98982 3.71919 3.60063C3.74126 3.1792 3.64405 2.7601 3.43871 2.39143C3.27435 1.86609 2.96287 1.39887 2.54116 1.04511C2.3239 0.948211 2.08345 0.915505 1.8482 0.950847C1.61296 0.986189 1.39273 1.0881 1.21354 1.24456C0.907322 1.50797 0.664292 1.8369 0.502449 2.20698C0.340606 2.57706 0.264097 2.97881 0.278589 3.38247C0.280582 3.61122 0.307755 3.83906 0.359618 4.06187C0.882586 5.88699 2.01001 7.48033 3.55714 8.58078C4.80373 9.54689 6.94164 10.862 8.61832 10.5442C9.03417 10.4799 9.42807 10.3152 9.76586 10.0643C10.1037 9.81343 10.3751 9.48391 10.5568 9.10435C10.6631 8.87249 10.6957 8.61361 10.6503 8.36262C10.5443 7.85775 9.85868 7.55857 9.4473 7.30925Z" fill="white"/>
</svg>
