<svg width="23" height="22" viewBox="0 0 23 22" fill="none" xmlns="http://www.w3.org/2000/svg">
<path fill-rule="evenodd" clip-rule="evenodd" d="M11.6603 0.204583C9.06341 0.402006 6.63014 1.54894 4.82511 3.4264C3.02007 5.30387 1.96971 7.78035 1.87456 10.383C1.79979 12.5266 2.38506 14.6414 3.55123 16.4415L0.908447 21.7582C0.989476 21.7582 7.44061 20.0192 7.44061 20.0192C8.87971 20.7789 10.4753 21.1945 12.1021 21.2336C13.7289 21.2727 15.3427 20.9341 16.8166 20.2445C18.2905 19.5548 19.5845 18.5328 20.5969 17.2588C21.6093 15.9849 22.3126 14.4935 22.6516 12.9019C22.9905 11.3103 22.9559 9.66182 22.5504 8.08586C22.1449 6.50991 21.3796 5.04941 20.3145 3.81906C19.2495 2.58871 17.9138 1.62201 16.4122 0.994866C14.9106 0.367722 13.2841 0.0972134 11.6603 0.204583ZM12.4021 19.3959C10.8692 19.3956 9.36374 18.9891 8.03898 18.2179L7.70239 17.9997L7.32842 18.1244L4.43631 18.9347L5.68291 16.2296C4.43479 14.702 3.74363 12.7951 3.72309 10.8226C3.70254 8.85003 4.35383 6.9292 5.56986 5.37594C6.7859 3.82267 8.49428 2.72943 10.4141 2.27598C12.3339 1.82253 14.3509 2.03586 16.1334 2.8809C17.9159 3.72593 19.3578 5.15236 20.222 6.92565C21.0862 8.69893 21.3213 10.7135 20.8885 12.6381C20.4558 14.5627 19.381 16.2828 17.841 17.5155C16.3009 18.7482 14.3872 19.4201 12.4145 19.4209L12.4021 19.3959Z" fill="white"/>
</svg>
