<svg width="445" height="122" viewBox="0 0 445 122" fill="none" xmlns="http://www.w3.org/2000/svg">
<ellipse cx="31.3574" cy="31.2863" rx="31.3574" ry="31.2863" transform="matrix(0.902336 0.431034 -0.433583 0.901114 336.463 0.965576)" fill="#3805F2"/>
<g filter="url(#filter0_d_2039_629)">
<path d="M393.971 25.9129C394.652 27.5994 394.36 29.744 392.932 32.3097C391.51 34.8659 389.034 37.6945 385.647 40.6145C378.881 46.4478 368.652 52.497 356.562 57.3422C344.472 62.1874 332.888 64.8798 323.951 65.3394C319.478 65.5695 315.725 65.2369 312.922 64.3741C310.108 63.5082 308.407 62.1627 307.725 60.4763C307.044 58.7899 307.337 56.6452 308.764 54.0796C310.187 51.5233 312.663 48.6948 316.05 45.7747C322.816 39.9414 333.044 33.8922 345.135 29.047C357.225 24.2018 368.809 21.5095 377.746 21.0498C382.219 20.8197 385.971 21.1524 388.775 22.0151C391.588 22.8811 393.29 24.2265 393.971 25.9129Z" stroke="#3805F2" stroke-width="2" shape-rendering="crispEdges"/>
</g>
<path fill-rule="evenodd" clip-rule="evenodd" d="M1.03078 122C1.33443 122 1.62172 121.862 1.81269 121.626C53.569 57.6414 133.161 16.6572 222.437 16.6572C311.714 16.6572 391.306 57.6414 443.062 121.626C443.253 121.862 443.54 122 443.844 122V122C444.685 122 445.152 121.029 444.623 120.375C392.497 55.9308 312.337 14.6572 222.437 14.6572C132.537 14.6572 52.378 55.9308 0.251827 120.375C-0.276943 121.029 0.189973 122 1.03078 122V122ZM362.31 122C363.225 122 363.663 120.881 362.985 120.266C326.313 87.002 277.335 66.6856 223.536 66.6856C169.738 66.6856 120.759 87.002 84.087 120.266C83.4089 120.881 83.8471 122 84.7626 122V122C85.0136 122 85.2554 121.906 85.4412 121.738C121.753 88.804 170.252 68.6856 223.536 68.6856C276.821 68.6856 325.319 88.804 361.631 121.738C361.817 121.906 362.059 122 362.31 122V122Z" fill="#3805F2"/>
<path d="M121.707 97.8977L112.774 88.3807L106.515 81.5342C105.626 80.5617 104.611 79.5135 104.612 78.1956C104.612 77.6455 104.797 77.1114 105.333 76.7486C106.561 75.9175 108.051 76.8749 108.643 77.4574L110.781 79.7971C111.591 80.6831 112.232 81.7949 113.289 82.3643C113.914 82.701 114.679 82.7922 115.476 82.2154C117.014 81.1027 115.497 79.1326 114.546 78.2867C113.769 77.6956 112.033 75.6342 113.429 74.3669C114.826 73.0996 116.641 75.0536 117.446 75.8311L122.849 81.2802C125.171 83.2383 127.441 80.4902 125.681 78.4339C124.706 77.296 123.276 75.7588 122.854 75.3422C121.695 74.1958 119.943 72.4492 121.286 71.0314C122.692 69.5461 124.966 72.0271 125.432 72.5786C125.384 72.5178 125.316 72.4288 125.225 72.3069L119.74 66.5015C119.325 66.1122 118.315 64.6766 119.408 63.5432C120.774 62.1265 122.646 63.9228 123.355 64.6342L127.948 69.6581L138.9 81.7656C142.655 85.917 146.933 90.6539 145.827 96.1426C145.398 98.2728 144.321 100.546 142.186 102.699C139.152 105.759 135.637 106.237 132.586 105.667C128.104 104.831 124.827 101.221 121.707 97.8977Z" fill="#3805F2"/>
<defs>
<filter id="filter0_d_2039_629" x="302.373" y="19.98" width="96.9507" height="54.4294" filterUnits="userSpaceOnUse" color-interpolation-filters="sRGB">
<feFlood flood-opacity="0" result="BackgroundImageFix"/>
<feColorMatrix in="SourceAlpha" type="matrix" values="0 0 0 0 0 0 0 0 0 0 0 0 0 0 0 0 0 0 127 0" result="hardAlpha"/>
<feOffset dy="4"/>
<feGaussianBlur stdDeviation="2"/>
<feComposite in2="hardAlpha" operator="out"/>
<feColorMatrix type="matrix" values="0 0 0 0 0 0 0 0 0 0 0 0 0 0 0 0 0 0 0.25 0"/>
<feBlend mode="normal" in2="BackgroundImageFix" result="effect1_dropShadow_2039_629"/>
<feBlend mode="normal" in="SourceGraphic" in2="effect1_dropShadow_2039_629" result="shape"/>
</filter>
</defs>
</svg>
