<svg width="104" height="17" viewBox="0 0 104 17" fill="none" xmlns="http://www.w3.org/2000/svg">
<path d="M0.42 8.62C0.42 7.14 0.853333 5.80667 1.72 4.62C2.6 3.43333 3.79333 2.50667 5.3 1.84C6.82 1.16 8.5 0.819999 10.34 0.819999C11.9933 0.819999 13.4867 1.08667 14.82 1.62C16.1533 2.14 17.2467 2.88 18.1 3.84C18.9533 4.78667 19.52 5.9 19.8 7.18H14.68C14.48 6.64667 14.14 6.18667 13.66 5.8C13.1933 5.4 12.6667 5.1 12.08 4.9C11.4933 4.7 10.92 4.6 10.36 4.6C9.57333 4.6 8.80667 4.76 8.06 5.08C7.32667 5.4 6.72667 5.86667 6.26 6.48C5.80667 7.08 5.58 7.79333 5.58 8.62C5.58 9.44667 5.80667 10.1667 6.26 10.78C6.71333 11.38 7.3 11.84 8.02 12.16C8.75333 12.4667 9.53333 12.62 10.36 12.62C11.28 12.62 12.1267 12.4 12.9 11.96C13.6867 11.52 14.2667 10.8933 14.64 10.08H19.78C19.4867 11.3467 18.9133 12.46 18.06 13.42C17.2067 14.3667 16.12 15.1 14.8 15.62C13.48 16.14 11.9933 16.4 10.34 16.4C8.51333 16.4 6.84 16.06 5.32 15.38C3.81333 14.7 2.62 13.7667 1.74 12.58C0.86 11.3933 0.42 10.0733 0.42 8.62ZM35.7748 11H25.1148C25.2082 11.84 25.5215 12.5333 26.0548 13.08C26.6015 13.6133 27.3415 13.88 28.2748 13.88C29.0348 13.88 29.7082 13.7 30.2948 13.34C30.8948 12.9667 31.1948 12.4 31.1948 11.64H35.7748C35.7748 13.1867 35.1082 14.3667 33.7748 15.18C32.4548 15.9933 30.6148 16.4 28.2548 16.4C26.8015 16.4 25.4815 16.1533 24.2948 15.66C23.1082 15.1667 22.1682 14.4733 21.4748 13.58C20.7815 12.6733 20.4348 11.64 20.4348 10.48C20.4348 9.30667 20.7748 8.27333 21.4548 7.38C22.1482 6.47333 23.0882 5.78 24.2748 5.3C25.4748 4.80667 26.8015 4.56 28.2548 4.56C29.7482 4.56 31.0548 4.8 32.1748 5.28C33.3082 5.76 34.1882 6.44 34.8148 7.32C35.4415 8.18667 35.7615 9.20667 35.7748 10.38V10.48H35.8148H35.7748V11ZM28.2548 7C27.3748 7 26.7015 7.18667 26.2348 7.56C25.7682 7.93333 25.4482 8.45333 25.2748 9.12H31.0748C30.9282 8.45333 30.6348 7.93333 30.1948 7.56C29.7548 7.18667 29.1082 7 28.2548 7ZM41.1552 16H36.5552V1.2H41.1552V16ZM57.3178 11H46.6578C46.7511 11.84 47.0645 12.5333 47.5978 13.08C48.1445 13.6133 48.8845 13.88 49.8178 13.88C50.5778 13.88 51.2511 13.7 51.8378 13.34C52.4378 12.9667 52.7378 12.4 52.7378 11.64H57.3178C57.3178 13.1867 56.6511 14.3667 55.3178 15.18C53.9978 15.9933 52.1578 16.4 49.7978 16.4C48.3445 16.4 47.0245 16.1533 45.8378 15.66C44.6511 15.1667 43.7111 14.4733 43.0178 13.58C42.3245 12.6733 41.9778 11.64 41.9778 10.48C41.9778 9.30667 42.3178 8.27333 42.9978 7.38C43.6911 6.47333 44.6311 5.78 45.8178 5.3C47.0178 4.80667 48.3445 4.56 49.7978 4.56C51.2911 4.56 52.5978 4.8 53.7178 5.28C54.8511 5.76 55.7311 6.44 56.3578 7.32C56.9845 8.18667 57.3045 9.20667 57.3178 10.38V10.48H57.3578H57.3178V11ZM49.7978 7C48.9178 7 48.2445 7.18667 47.7778 7.56C47.3111 7.93333 46.9911 8.45333 46.8178 9.12H52.6178C52.4711 8.45333 52.1778 7.93333 51.7378 7.56C51.2978 7.18667 50.6511 7 49.7978 7ZM65.2781 9.52C65.6648 9.52 65.9581 9.51333 66.1581 9.5L67.2981 9.48C68.8715 9.48 70.1448 9.68667 71.1181 10.1C72.1048 10.5 72.5981 11.3067 72.5981 12.52C72.5981 14.0933 71.8648 15.1467 70.3981 15.68C68.9448 16.2 67.2781 16.46 65.3981 16.46C63.5315 16.46 61.8181 16.1867 60.2581 15.64C58.7115 15.08 57.9381 14.0133 57.9381 12.44H62.5781C62.5781 13.0667 62.8515 13.4867 63.3981 13.7C63.9448 13.9 64.6115 14 65.3981 14C66.2915 14 66.9515 13.8933 67.3781 13.68C67.8181 13.4533 68.0381 13.0933 68.0381 12.6C68.0381 12.16 67.7848 11.8867 67.2781 11.78C66.7715 11.66 66.1315 11.6 65.3581 11.6H64.6581C63.4448 11.6 62.3648 11.54 61.4181 11.42C60.4848 11.2867 59.6715 10.98 58.9781 10.5C58.2848 10.02 57.9381 9.3 57.9381 8.34C57.9381 6.82 58.6848 5.82667 60.1781 5.36C61.6848 4.89333 63.4181 4.66 65.3781 4.66C67.2315 4.66 68.8981 4.93333 70.3781 5.48C71.8581 6.02667 72.5981 7.08667 72.5981 8.66L67.9981 8.64C67.9981 7.96 67.6515 7.54 66.9581 7.38C66.2648 7.22 65.7181 7.14 65.3181 7.14C64.7048 7.14 64.0915 7.21333 63.4781 7.36C62.8781 7.49333 62.5781 7.8 62.5781 8.28C62.5781 9.08 63.4781 9.49333 65.2781 9.52ZM80.0125 5.1H82.0925V8.24H80.0125V16H75.4125V8.24H73.2325V5.1H75.4125V2.74L80.0125 0.879999V5.1ZM87.6591 1.2H83.0591V4.22H87.6591V1.2ZM87.6591 16H83.0591V4.8H87.6591V16ZM95.9831 4.62C97.8898 4.62 99.6031 4.94 101.123 5.58C102.643 6.22 103.403 7.34667 103.403 8.96V16H99.0431L98.7031 14.58V14.48C98.3698 15.08 97.6631 15.52 96.5831 15.8C95.5165 16.08 94.3498 16.22 93.0831 16.22C92.0698 16.22 91.0565 16 90.0431 15.56C89.0298 15.1067 88.5231 14.1667 88.5231 12.74C88.5231 10.4867 89.9965 9.36 92.9431 9.36C94.8365 9.36 96.1565 9.34667 96.9031 9.32C97.6498 9.28 98.1431 9.21333 98.3831 9.12C98.6231 9.01333 98.7498 8.82667 98.7631 8.56V8.3C98.7498 7.86 98.4565 7.54 97.8831 7.34C97.3231 7.12667 96.6831 7.02 95.9631 7.02C95.2165 7.03333 94.5765 7.17333 94.0431 7.44C93.5231 7.70667 93.2631 8.11333 93.2631 8.66H88.6431C88.6431 7.64667 89.0431 6.84 89.8431 6.24C90.6431 5.62667 91.5965 5.20667 92.7031 4.98C93.8231 4.74 94.9165 4.62 95.9831 4.62ZM95.6831 13.3C96.6698 13.3 97.4165 13.08 97.9231 12.64C98.4298 12.2 98.7031 11.64 98.7431 10.96V10.68C98.2365 10.8933 97.4298 11 96.3231 11C95.1765 11 94.3698 11.08 93.9031 11.24C93.4498 11.4 93.2165 11.6933 93.2031 12.12C93.2431 12.52 93.4498 12.82 93.8231 13.02C94.2098 13.2067 94.8298 13.3 95.6831 13.3Z" fill="white"/>
</svg>
