<svg width="117" height="116" viewBox="0 0 117 116" fill="none" xmlns="http://www.w3.org/2000/svg">
<path d="M117 61.0208C102.416 61.0208 88.429 66.8133 78.1165 77.1239C67.8039 87.4345 62.0104 101.419 62.0104 116C62.0049 101.417 56.2067 87.4326 45.8909 77.1226C35.575 66.8126 21.5861 61.0208 7 61.0208C21.5916 61.0153 35.5837 55.2161 45.8995 44.8982C56.2154 34.5804 62.0104 20.5888 62.0104 6C62.0077 13.2227 63.4279 20.3752 66.1899 27.0492C68.9519 33.7231 73.0016 39.7878 78.1079 44.897C83.2141 50.0061 89.2769 54.0597 95.95 56.8262C102.623 59.5928 109.776 61.0181 117 61.0208Z" fill="#3805F2"/>
<path d="M39 19.4926C33.8293 19.4926 28.8703 17.4389 25.214 13.7834C21.5578 10.1278 19.5037 5.16976 19.5037 0C19.5017 5.17044 17.446 10.1284 13.7886 13.7838C10.1311 17.4392 5.17142 19.4926 0 19.4926C5.17338 19.4946 10.1342 21.5507 13.7916 25.2088C17.4491 28.8669 19.5037 33.8276 19.5037 39C19.5027 36.4392 20.0062 33.9033 20.9855 31.5371C21.9648 29.1709 23.4006 27.0207 25.211 25.2093C27.0214 23.3978 29.1709 21.9607 31.5368 20.9798C33.9027 19.9989 36.4387 19.4936 39 19.4926Z" fill="#3805F2"/>
</svg>
