<svg width="15" height="15" viewBox="0 0 15 15" fill="none" xmlns="http://www.w3.org/2000/svg">
<path d="M7.50088 1.34937C9.50265 1.34937 9.73898 1.35819 10.5309 1.39346C11.006 1.39937 11.4766 1.48647 11.9224 1.65099C12.2455 1.77605 12.5388 1.96729 12.7836 2.21243C13.0284 2.45757 13.2193 2.75118 13.3439 3.07444C13.5101 3.51986 13.5979 3.99073 13.6032 4.46613C13.6384 5.25635 13.6455 5.49447 13.6455 7.49647C13.6455 9.49847 13.6455 9.73483 13.6032 10.525C13.5979 11.0004 13.5101 11.4713 13.3439 11.9167C13.2193 12.24 13.0284 12.5336 12.7836 12.7788C12.5388 13.0239 12.2455 13.2151 11.9224 13.3402C11.4766 13.5047 11.006 13.5918 10.5309 13.5977C9.74074 13.6348 9.50265 13.6418 7.50088 13.6418C5.49912 13.6418 5.26279 13.6418 4.47266 13.5977C3.99752 13.592 3.52686 13.5049 3.08113 13.3402C2.75763 13.2155 2.46384 13.0244 2.2187 12.7793C1.97356 12.5341 1.7825 12.2403 1.65785 11.9167C1.49335 11.4709 1.40626 11.0002 1.40035 10.525C1.36332 9.73483 1.35626 9.49671 1.35626 7.49647C1.35626 5.49624 1.35626 5.25635 1.40035 4.46613C1.40626 3.99095 1.49335 3.52027 1.65785 3.07444C1.77809 2.74867 1.96973 2.45395 2.2187 2.2119C2.46135 1.96368 2.75585 1.77215 3.08113 1.65099C3.52686 1.48627 3.99752 1.39917 4.47266 1.39346C5.26279 1.35819 5.49912 1.34937 7.50088 1.34937ZM7.50088 0C5.46561 0 5.20811 0.00881938 4.41094 0.0440969C3.78871 0.0584637 3.17337 0.17773 2.59083 0.396872C2.09315 0.589927 1.64117 0.884603 1.26372 1.2621C0.886263 1.6396 0.591622 2.09164 0.398589 2.58937C0.17845 3.17108 0.0591609 3.78609 0.0458558 4.40793C0.00881872 5.20873 0 5.46625 0 7.5C0 9.53375 0.00881872 9.79304 0.0458558 10.5903C0.0594412 11.2127 0.178718 11.8282 0.398589 12.4106C0.592016 12.9079 0.886815 13.3595 1.26424 13.7367C1.64165 14.1138 2.09343 14.4083 2.59083 14.6014C3.17313 14.8214 3.78862 14.9407 4.41094 14.9541C5.20988 14.9912 5.46914 15 7.50088 15C9.53263 15 9.79365 15 10.5926 14.9541C11.2144 14.9408 11.8293 14.8215 12.4109 14.6014C12.9088 14.4091 13.3609 14.1149 13.7385 13.7376C14.116 13.3604 14.4105 12.9084 14.6032 12.4106C14.8223 11.828 14.9415 11.2126 14.9559 10.5903C14.9912 9.79128 15 9.53198 15 7.5C15 5.46802 14.9912 5.20696 14.9559 4.40793C14.9417 3.78618 14.8225 3.17131 14.6032 2.58937C14.4109 2.09119 14.1165 1.63877 13.739 1.26117C13.3614 0.883574 12.9091 0.589167 12.4109 0.396872C11.8291 0.177533 11.2143 0.0582568 10.5926 0.0440969C9.79189 0.00881938 9.53439 0 7.50088 0Z" fill="white"/>
</svg>
