<svg width="16" height="20" viewBox="0 0 16 20" fill="none" xmlns="http://www.w3.org/2000/svg">
<path d="M13.1549 2.10062C11.7878 0.756153 9.9337 0.000854492 8.00044 0.000854492C6.06718 0.000854492 4.21309 0.756153 2.84597 2.10062C-0.00249743 4.9011 -0.376398 8.85538 2.3839 12.8682C3.78516 14.9057 7.99982 20.0002 7.99982 20.0002C7.99982 20.0002 12.2142 14.9057 13.6157 12.8682C16.376 8.85538 16.0021 4.9011 13.1549 2.10062ZM7.99982 11.6923C7.1321 11.6923 6.28386 11.4392 5.56238 10.965C4.84089 10.4909 4.27856 9.81693 3.9465 9.02842C3.61444 8.23992 3.52755 7.37226 3.69684 6.53519C3.86612 5.69811 4.28397 4.92921 4.89754 4.32571C5.51112 3.72222 6.29286 3.31123 7.14391 3.14472C7.99496 2.97822 8.87709 3.06367 9.67876 3.39029C10.4804 3.7169 11.1656 4.26999 11.6477 4.97963C12.1298 5.68927 12.3871 6.52358 12.3871 7.37705C12.3871 8.52153 11.9249 9.61913 11.1021 10.4284C10.2793 11.2377 9.1634 11.6923 7.99982 11.6923Z" fill="#3805F2"/>
</svg>
