<svg width="37" height="37" viewBox="0 0 37 37" fill="none" xmlns="http://www.w3.org/2000/svg">
<path fill-rule="evenodd" clip-rule="evenodd" d="M14.4477 7.54596L7.06711 15.1234C6.91625 15.2783 6.76447 15.4336 6.61215 15.5895C3.55073 18.7224 0.275948 22.0736 0.0181601 26.4116C-0.128295 28.8762 0.585452 31.5563 3.09642 33.8161C4.72274 35.2798 6.39153 36.1128 7.98299 36.5216C13.4018 37.9137 18.0709 33.2952 22.0479 29.36L31.4747 20.0324L35.6909 15.8162C36.2855 15.1676 37.7837 13.4594 36.4864 12.3243C35.4485 11.4162 34.2315 12.3568 33.9071 12.7351L29.0423 17.7621C28.9392 17.8468 28.864 17.91 28.8127 17.954C29.2772 17.5246 31.3588 15.4379 29.9999 14.2702C28.7026 13.1555 27.2431 14.7567 26.2855 15.8162C25.9376 16.2012 24.6486 17.5135 23.691 18.4108C21.9604 20.0324 19.4594 18.1621 21.081 16.054L25.6369 11.1135C25.6774 11.0676 25.7218 11.018 25.7692 10.9651C26.4794 10.1722 27.8513 8.64056 26.7567 7.54596C25.5891 6.3784 23.8531 7.97839 23.3666 8.68109C22.6639 9.54597 20.9991 10.9514 19.9612 9.65409C18.9234 8.35678 20.0693 7.0595 20.772 6.57302L23.8531 3.49195C24.3396 2.95141 25.118 1.61088 24.3396 0.573042C23.5612 -0.464792 22.0693 0.140611 21.4207 0.573042L14.4477 7.54596ZM10.5 33C14.0899 33 17 30.0899 17 26.5C17 22.9101 14.0899 20 10.5 20C6.91015 20 4 22.9101 4 26.5C4 30.0899 6.91015 33 10.5 33Z" fill="white"/>
<path d="M13.6467 25.9189C14.345 26.2971 14.345 27.2992 13.6467 27.6775L9.69868 29.816C9.03238 30.1769 8.2224 29.6945 8.2224 28.9367L8.2224 24.6597C8.2224 23.9019 9.03238 23.4195 9.69868 23.7804L13.6467 25.9189Z" fill="white"/>
</svg>
