<svg width="15" height="15" viewBox="0 0 15 15" fill="none" xmlns="http://www.w3.org/2000/svg">
<path d="M14.3848 13.8837C12.7758 12.8931 11.0426 12.3518 9.09242 12.231V11.3705C9.5099 11.1833 9.88286 10.917 10.1879 10.588H11.5015C12.2573 10.588 12.8724 9.99382 12.8724 9.26377V6.04138C12.8724 3.26154 10.5486 1 7.69242 1C4.83614 1 2.51242 3.26154 2.51242 6.04138V9.26377C2.51242 9.99382 3.12744 10.588 3.88344 10.588H5.19888C5.5038 10.9163 5.87578 11.1826 6.29242 11.3699V12.231C4.34236 12.3518 2.60916 12.8931 1 13.8837L1.2247 14.2283C2.7059 13.3167 4.2354 12.8145 5.9994 12.6628C6.47568 12.903 7.08468 13.036 7.72728 13.036C8.36232 13.036 8.97272 12.9053 9.4476 12.6684C11.1853 12.8264 12.6963 13.3274 14.1599 14.2283L14.3848 13.8837ZM3.88344 10.18C3.359 10.18 2.93242 9.76901 2.93242 9.26377V6.04138C2.93242 3.48635 5.0677 1.40786 7.69242 1.40786C10.317 1.40786 12.4524 3.48635 12.4524 6.04125V9.26377C12.4524 9.76901 12.0258 10.18 11.5015 10.18H10.5102C10.7954 9.75378 10.9828 9.25955 11.0363 8.72589C11.2473 8.5767 11.4146 8.32782 11.4945 8.038C11.5658 7.77974 11.5615 7.51522 11.4818 7.29367C11.4012 7.069 11.2463 6.9043 11.0524 6.8344V5.90212C11.1051 5.89722 11.1578 5.89314 11.2095 5.88458C11.3237 5.86608 11.4012 5.76109 11.382 5.64984C11.3628 5.53859 11.2544 5.46325 11.1402 5.48215C9.96518 5.67282 8.294 4.72681 8.10878 3.76746C8.091 3.67512 8.01078 3.60658 7.91418 3.60127C7.81786 3.59692 7.72994 3.6554 7.70152 3.74516C7.2776 5.08626 5.2686 5.7309 3.97724 5.76C3.86132 5.76272 3.76948 5.85615 3.77228 5.96876C3.77494 6.07974 3.86846 6.168 3.98214 6.168H3.98718C4.09736 6.16528 4.2137 6.15712 4.33228 6.14597V6.82434C4.12396 6.88758 3.95722 7.0573 3.87238 7.29367C3.79286 7.51522 3.78838 7.77946 3.85964 8.038C3.94462 8.34604 4.12396 8.60267 4.35062 8.74806C4.40704 9.27315 4.59324 9.75976 4.87492 10.18H3.88344ZM4.75984 8.6092L4.75116 8.48925L4.63888 8.43852C4.47662 8.36522 4.33004 8.16652 4.2655 7.93246C4.2165 7.75471 4.2179 7.57098 4.26914 7.4279C4.29364 7.35977 4.3516 7.24118 4.465 7.21153C4.4811 7.20745 4.49776 7.20514 4.52492 7.20514C4.52492 7.20514 4.5287 7.20514 4.5308 7.20514L4.75242 7.21738V6.09252C5.9203 5.89695 7.28474 5.32426 7.88688 4.33758C8.36092 5.15942 9.54434 5.83711 10.6324 5.90688V7.20214L10.8395 7.205C10.8564 7.20527 10.8731 7.20745 10.889 7.21166C11.0029 7.24131 11.0608 7.3599 11.0852 7.42818C11.1364 7.57111 11.1378 7.75485 11.0888 7.9326C11.0268 8.15727 10.8917 8.34726 10.7359 8.42873L10.6335 8.48218L10.626 8.59506C10.5253 10.0919 9.23662 11.2643 7.69242 11.2643C6.15578 11.2643 4.86778 10.0981 4.75984 8.6092ZM6.71242 12.4961V11.5275C7.0235 11.6205 7.35222 11.6722 7.69242 11.6722C8.03276 11.6722 8.36134 11.6206 8.67242 11.528V12.515C8.37912 12.588 8.05838 12.6279 7.72742 12.6279C7.3735 12.628 7.02518 12.5809 6.71242 12.4961Z" fill="#3805F2" stroke="#3805F2" stroke-width="0.4"/>
</svg>
