<svg width="20" height="20" viewBox="0 0 20 20" fill="none" xmlns="http://www.w3.org/2000/svg">
<path d="M20 10.0038C17.3483 10.0038 14.8053 11.057 12.9303 12.9316C11.0553 14.8063 10.0019 17.3488 10.0019 20C10.0009 17.3485 8.94668 14.8059 7.07107 12.9314C5.19546 11.0568 2.65201 10.0038 0 10.0038C2.65302 10.0028 5.19703 8.94837 7.07264 7.07241C8.94825 5.19644 10.0019 2.65251 10.0019 0C10.0014 1.31322 10.2596 2.61368 10.7618 3.82712C11.264 5.04057 12.0003 6.14324 12.9287 7.07218C13.8571 8.00111 14.9594 8.73813 16.1727 9.24113C17.386 9.74414 18.6865 10.0033 20 10.0038Z" fill="#3805F2"/>
</svg>
