<svg width="40" height="40" viewBox="0 0 40 40" fill="none" xmlns="http://www.w3.org/2000/svg">
<path d="M40 20.0076C34.6967 20.0076 29.6106 22.1139 25.8605 25.8632C22.1105 29.6125 20.0038 34.6977 20.0038 40C20.0018 34.697 17.8934 29.6118 14.1421 25.8628C10.3909 22.1137 5.30402 20.0076 0 20.0076C5.30603 20.0056 10.3941 17.8967 14.1453 14.1448C17.8965 10.3929 20.0038 5.30503 20.0038 0C20.0028 2.62644 20.5192 5.22735 21.5236 7.65425C22.528 10.0811 24.0006 12.2865 25.8574 14.1444C27.7142 16.0022 29.9189 17.4763 32.3455 18.4823C34.772 19.4883 37.3731 20.0066 40 20.0076Z" fill="#3805F2"/>
</svg>
