<svg width="23" height="23" viewBox="0 0 23 23" fill="none" xmlns="http://www.w3.org/2000/svg">
<path fill-rule="evenodd" clip-rule="evenodd" d="M10.8574 0.702385C8.26043 0.899808 5.82716 2.04674 4.02213 3.92421C2.21709 5.80167 1.16673 8.27815 1.07158 10.8808C0.996808 13.0244 1.58208 15.1392 2.74825 16.9393L0.105469 22.256C0.186497 22.256 6.63763 20.517 6.63763 20.517C8.07673 21.2767 9.67234 21.6923 11.2992 21.7314C12.926 21.7705 14.5397 21.4319 16.0136 20.7423C17.4875 20.0526 18.7815 19.0306 19.7939 17.7567C20.8063 16.4827 21.5096 14.9913 21.8486 13.3997C22.1875 11.8081 22.1529 10.1596 21.7474 8.58367C21.3419 7.00771 20.5766 5.54722 19.5116 4.31687C18.4465 3.08652 17.1108 2.11981 15.6092 1.49267C14.1076 0.865525 12.4811 0.595016 10.8574 0.702385ZM11.5991 19.8937C10.0662 19.8934 8.56076 19.4869 7.236 18.7157L6.89942 18.4975L6.52544 18.6222L3.63333 19.4325L4.87993 16.7274C3.63181 15.1998 2.94065 13.2929 2.92011 11.3204C2.89956 9.34783 3.55085 7.427 4.76689 5.87374C5.98292 4.32047 7.69131 3.22723 9.61114 2.77378C11.531 2.32033 13.548 2.53366 15.3305 3.3787C17.1129 4.22373 18.5548 5.65017 19.419 7.42345C20.2832 9.19674 20.5183 11.2113 20.0855 13.1359C19.6528 15.0605 18.578 16.7806 17.038 18.0133C15.4979 19.246 13.5842 19.9179 11.6115 19.9187L11.5991 19.8937Z" fill="white"/>
<path fill-rule="evenodd" clip-rule="evenodd" d="M15.6441 12.8071C15.4308 12.6382 15.1821 12.5197 14.9166 12.4603C14.6511 12.401 14.3757 12.4023 14.1108 12.4642C13.7119 12.6263 13.4875 13.2496 13.2008 13.5675C13.1457 13.6422 13.0653 13.6942 12.9746 13.7137C12.8839 13.7332 12.7892 13.7189 12.7083 13.6734C11.2507 13.1025 10.0277 12.0574 9.23658 10.7065C9.17111 10.6195 9.14057 10.5111 9.15095 10.4027C9.16133 10.2943 9.21188 10.1937 9.29267 10.1206C9.58589 9.83998 9.80074 9.48762 9.91597 9.09843C9.93804 8.67701 9.84083 8.2579 9.63549 7.88923C9.47113 7.3639 9.15965 6.89667 8.73794 6.54291C8.52068 6.44601 8.28023 6.41331 8.04498 6.44865C7.80973 6.48399 7.58951 6.58591 7.41031 6.74236C7.1041 7.00577 6.86107 7.3347 6.69923 7.70478C6.53738 8.07486 6.46087 8.47661 6.47537 8.88027C6.47736 9.10903 6.50453 9.33687 6.5564 9.55967C7.07936 11.3848 8.20679 12.9781 9.75391 14.0786C11.0005 15.0447 13.1384 16.3598 14.8151 16.042C15.2309 15.9777 15.6248 15.813 15.9626 15.5621C16.3004 15.3112 16.5719 14.9817 16.7535 14.6021C16.8599 14.3703 16.8925 14.1114 16.847 13.8604C16.7411 13.3556 16.0555 13.0564 15.6441 12.8071Z" fill="white"/>
</svg>
