<svg width="16" height="12" viewBox="0 0 16 12" fill="none" xmlns="http://www.w3.org/2000/svg">
<path d="M15.6659 10.1205C15.575 10.4856 15.3957 10.8186 15.1461 11.0858C14.8964 11.353 14.5854 11.545 14.2443 11.6424C13.0004 12 7.99645 12 7.99645 12C7.99645 12 2.99423 12 1.74678 11.6424C1.4071 11.5441 1.09764 11.3516 0.849609 11.0844C0.601581 10.8172 0.423758 10.4847 0.334075 10.1205C8.68517e-07 8.78884 0 6 0 6C0 6 8.68517e-07 3.21497 0.334075 1.87952C0.423924 1.51535 0.601804 1.18295 0.849807 0.915786C1.09781 0.648618 1.40718 0.456111 1.74678 0.357642C2.99067 9.53674e-07 7.99645 0 7.99645 0C7.99645 0 12.9969 9.53674e-07 14.2443 0.357642C14.5853 0.455182 14.8963 0.647219 15.1459 0.914401C15.3954 1.18158 15.5748 1.51447 15.6659 1.87952C16 3.21116 16 6 16 6C16 6 16 8.78503 15.6659 10.1205ZM6.40426 3.43183V8.56817L10.5589 6L6.40426 3.43183Z" fill="white"/>
</svg>
