<svg width="30" height="30" viewBox="0 0 30 30" fill="none" xmlns="http://www.w3.org/2000/svg">
<path d="M30 14.9943C26.0225 14.9943 22.2079 13.4146 19.3954 10.6026C16.5829 7.7906 15.0028 3.97674 15.0028 0C15.0013 3.97726 13.42 7.79111 10.6066 10.6029C7.79319 13.4147 3.97802 14.9943 0 14.9943C3.97952 14.9958 7.79554 16.5774 10.609 19.3914C13.4224 22.2053 15.0028 26.0212 15.0028 30C15.0021 28.0302 15.3894 26.0795 16.1427 24.2593C16.896 22.4391 18.0004 20.7851 19.3931 19.3917C20.7857 17.9983 22.4392 16.8928 24.2591 16.1383C26.079 15.3838 28.0298 14.9951 30 14.9943Z" fill="white"/>
</svg>
