<svg width="52" height="51" viewBox="0 0 52 51" fill="none" xmlns="http://www.w3.org/2000/svg">
<path d="M51.0571 21.0713C44.4065 22.2815 37.5477 20.8007 31.9895 16.9547C26.4312 13.1086 22.6289 7.21239 21.4189 0.563068C22.6265 7.21372 21.1429 14.0718 17.2942 19.6293C13.4456 25.1868 7.547 28.9888 0.895543 30.1991C7.54998 28.9908 14.4118 30.4743 19.9721 34.3234C25.5325 38.1724 29.3361 44.0719 30.5467 50.7247C29.9461 47.4312 30.0002 44.0517 30.7059 40.7791C31.4117 37.5065 32.7551 34.4049 34.6597 31.6513C36.5643 28.8977 38.9926 26.5462 41.8061 24.7308C44.6196 22.9155 47.7631 21.672 51.0571 21.0713Z" fill="white"/>
</svg>
