<svg width="104" height="16" viewBox="0 0 104 16" fill="none" xmlns="http://www.w3.org/2000/svg">
<path d="M0.42 8.12195C0.42 6.64195 0.853333 5.30862 1.72 4.12195C2.6 2.93529 3.79333 2.00862 5.3 1.34195C6.82 0.661952 8.5 0.321952 10.34 0.321952C11.9933 0.321952 13.4867 0.588619 14.82 1.12195C16.1533 1.64195 17.2467 2.38195 18.1 3.34195C18.9533 4.28862 19.52 5.40195 19.8 6.68195H14.68C14.48 6.14862 14.14 5.68862 13.66 5.30195C13.1933 4.90195 12.6667 4.60195 12.08 4.40195C11.4933 4.20195 10.92 4.10195 10.36 4.10195C9.57333 4.10195 8.80667 4.26195 8.06 4.58195C7.32667 4.90195 6.72667 5.36862 6.26 5.98195C5.80667 6.58195 5.58 7.29529 5.58 8.12195C5.58 8.94862 5.80667 9.66862 6.26 10.282C6.71333 10.882 7.3 11.342 8.02 11.662C8.75333 11.9686 9.53333 12.122 10.36 12.122C11.28 12.122 12.1267 11.902 12.9 11.462C13.6867 11.022 14.2667 10.3953 14.64 9.58195H19.78C19.4867 10.8486 18.9133 11.962 18.06 12.922C17.2067 13.8686 16.12 14.602 14.8 15.122C13.48 15.642 11.9933 15.902 10.34 15.902C8.51333 15.902 6.84 15.562 5.32 14.882C3.81333 14.202 2.62 13.2686 1.74 12.082C0.86 10.8953 0.42 9.57529 0.42 8.12195ZM35.7748 10.502H25.1148C25.2082 11.342 25.5215 12.0353 26.0548 12.582C26.6015 13.1153 27.3415 13.382 28.2748 13.382C29.0348 13.382 29.7082 13.202 30.2948 12.842C30.8948 12.4686 31.1948 11.902 31.1948 11.142H35.7748C35.7748 12.6886 35.1082 13.8686 33.7748 14.682C32.4548 15.4953 30.6148 15.902 28.2548 15.902C26.8015 15.902 25.4815 15.6553 24.2948 15.162C23.1082 14.6686 22.1682 13.9753 21.4748 13.082C20.7815 12.1753 20.4348 11.142 20.4348 9.98195C20.4348 8.80862 20.7748 7.77529 21.4548 6.88195C22.1482 5.97529 23.0882 5.28195 24.2748 4.80195C25.4748 4.30862 26.8015 4.06195 28.2548 4.06195C29.7482 4.06195 31.0548 4.30195 32.1748 4.78195C33.3082 5.26195 34.1882 5.94195 34.8148 6.82195C35.4415 7.68862 35.7615 8.70862 35.7748 9.88195V9.98195H35.8148H35.7748V10.502ZM28.2548 6.50195C27.3748 6.50195 26.7015 6.68862 26.2348 7.06195C25.7682 7.43529 25.4482 7.95529 25.2748 8.62195H31.0748C30.9282 7.95529 30.6348 7.43529 30.1948 7.06195C29.7548 6.68862 29.1082 6.50195 28.2548 6.50195ZM41.1552 15.502H36.5552V0.701953H41.1552V15.502ZM57.3178 10.502H46.6578C46.7511 11.342 47.0645 12.0353 47.5978 12.582C48.1445 13.1153 48.8845 13.382 49.8178 13.382C50.5778 13.382 51.2511 13.202 51.8378 12.842C52.4378 12.4686 52.7378 11.902 52.7378 11.142H57.3178C57.3178 12.6886 56.6511 13.8686 55.3178 14.682C53.9978 15.4953 52.1578 15.902 49.7978 15.902C48.3445 15.902 47.0245 15.6553 45.8378 15.162C44.6511 14.6686 43.7111 13.9753 43.0178 13.082C42.3245 12.1753 41.9778 11.142 41.9778 9.98195C41.9778 8.80862 42.3178 7.77529 42.9978 6.88195C43.6911 5.97529 44.6311 5.28195 45.8178 4.80195C47.0178 4.30862 48.3445 4.06195 49.7978 4.06195C51.2911 4.06195 52.5978 4.30195 53.7178 4.78195C54.8511 5.26195 55.7311 5.94195 56.3578 6.82195C56.9845 7.68862 57.3045 8.70862 57.3178 9.88195V9.98195H57.3578H57.3178V10.502ZM49.7978 6.50195C48.9178 6.50195 48.2445 6.68862 47.7778 7.06195C47.3111 7.43529 46.9911 7.95529 46.8178 8.62195H52.6178C52.4711 7.95529 52.1778 7.43529 51.7378 7.06195C51.2978 6.68862 50.6511 6.50195 49.7978 6.50195ZM65.2781 9.02195C65.6648 9.02195 65.9581 9.01529 66.1581 9.00195L67.2981 8.98195C68.8715 8.98195 70.1448 9.18862 71.1181 9.60195C72.1048 10.002 72.5981 10.8086 72.5981 12.022C72.5981 13.5953 71.8648 14.6486 70.3981 15.182C68.9448 15.702 67.2781 15.962 65.3981 15.962C63.5315 15.962 61.8181 15.6886 60.2581 15.142C58.7115 14.582 57.9381 13.5153 57.9381 11.942H62.5781C62.5781 12.5686 62.8515 12.9886 63.3981 13.202C63.9448 13.402 64.6115 13.502 65.3981 13.502C66.2915 13.502 66.9515 13.3953 67.3781 13.182C67.8181 12.9553 68.0381 12.5953 68.0381 12.102C68.0381 11.662 67.7848 11.3886 67.2781 11.282C66.7715 11.162 66.1315 11.102 65.3581 11.102H64.6581C63.4448 11.102 62.3648 11.042 61.4181 10.922C60.4848 10.7886 59.6715 10.482 58.9781 10.002C58.2848 9.52195 57.9381 8.80195 57.9381 7.84195C57.9381 6.32195 58.6848 5.32862 60.1781 4.86195C61.6848 4.39529 63.4181 4.16195 65.3781 4.16195C67.2315 4.16195 68.8981 4.43529 70.3781 4.98195C71.8581 5.52862 72.5981 6.58862 72.5981 8.16195L67.9981 8.14195C67.9981 7.46195 67.6515 7.04195 66.9581 6.88195C66.2648 6.72195 65.7181 6.64195 65.3181 6.64195C64.7048 6.64195 64.0915 6.71529 63.4781 6.86195C62.8781 6.99529 62.5781 7.30195 62.5781 7.78195C62.5781 8.58195 63.4781 8.99529 65.2781 9.02195ZM80.0125 4.60195H82.0925V7.74195H80.0125V15.502H75.4125V7.74195H73.2325V4.60195H75.4125V2.24195L80.0125 0.381952V4.60195ZM87.6591 0.701953H83.0591V3.72195H87.6591V0.701953ZM87.6591 15.502H83.0591V4.30195H87.6591V15.502ZM95.9831 4.12195C97.8898 4.12195 99.6031 4.44195 101.123 5.08195C102.643 5.72195 103.403 6.84862 103.403 8.46195V15.502H99.0431L98.7031 14.082V13.982C98.3698 14.582 97.6631 15.022 96.5831 15.302C95.5165 15.582 94.3498 15.722 93.0831 15.722C92.0698 15.722 91.0565 15.502 90.0431 15.062C89.0298 14.6086 88.5231 13.6686 88.5231 12.242C88.5231 9.98862 89.9965 8.86195 92.9431 8.86195C94.8365 8.86195 96.1565 8.84862 96.9031 8.82195C97.6498 8.78195 98.1431 8.71529 98.3831 8.62195C98.6231 8.51529 98.7498 8.32862 98.7631 8.06195V7.80195C98.7498 7.36195 98.4565 7.04195 97.8831 6.84195C97.3231 6.62862 96.6831 6.52195 95.9631 6.52195C95.2165 6.53529 94.5765 6.67529 94.0431 6.94195C93.5231 7.20862 93.2631 7.61529 93.2631 8.16195H88.6431C88.6431 7.14862 89.0431 6.34195 89.8431 5.74195C90.6431 5.12862 91.5965 4.70862 92.7031 4.48195C93.8231 4.24195 94.9165 4.12195 95.9831 4.12195ZM95.6831 12.802C96.6698 12.802 97.4165 12.582 97.9231 12.142C98.4298 11.702 98.7031 11.142 98.7431 10.462V10.182C98.2365 10.3953 97.4298 10.502 96.3231 10.502C95.1765 10.502 94.3698 10.582 93.9031 10.742C93.4498 10.902 93.2165 11.1953 93.2031 11.622C93.2431 12.022 93.4498 12.322 93.8231 12.522C94.2098 12.7086 94.8298 12.802 95.6831 12.802Z" fill="white"/>
</svg>
